<?xml version="1.0" encoding="iso-8859-1"?>
<!-- Generator: Adobe Illustrator 19.0.0, SVG Export Plug-In . SVG Version: 6.00 Build 0)  -->
<svg version="1.1" id="Layer_1" xmlns="http://www.w3.org/2000/svg" xmlns:xlink="http://www.w3.org/1999/xlink" x="0px" y="0px"
	 viewBox="0 0 453.35 453.35" style="enable-background:new 0 0 453.35 453.35;" xml:space="preserve">
<g>
	<path style="fill:#70B1E0;" d="M453.35,391.685c0,20.71-16.79,37.5-37.5,37.5H37.5c-10.36,0-19.73-4.2-26.52-10.98
		C4.2,411.415,0,402.045,0,391.685H453.35z"/>
	<path style="fill:#B3B3B3;" d="M178.95,94.665v188.99h271.49V94.665H178.95z M427.44,260.655H201.95v-142.99h225.49V260.655z"/>
	<polygon style="fill:#F7E88B;" points="427.44,246.945 427.44,260.655 268.86,260.655 298.28,225.095 353.82,157.975 	"/>
	<path style="fill:#AFDAF9;" d="M427.44,117.665v129.28l-73.62-88.97l-55.54,67.12l-39.7-47.98l-56.63,68.44v-127.89
		C201.95,117.665,427.44,117.665,427.44,117.665z M315.44,156.155c0-9.11-7.38-16.5-16.5-16.5c-9.11,0-16.49,7.39-16.49,16.5
		c0,9.12,7.38,16.5,16.49,16.5C308.06,172.655,315.44,165.275,315.44,156.155z"/>
	<polygon style="fill:#88C5FC;" points="426.2,283.655 426.2,391.685 27.16,391.685 27.16,334.655 27.16,334.645 50.16,334.645 
		50.16,334.655 50.16,368.685 403.2,368.685 403.2,283.655 	"/>
	<polygon style="fill:#4D4D4D;" points="403.2,283.655 403.2,368.685 50.16,368.685 50.16,334.645 142.2,334.645 142.2,250.315 
		50.16,250.315 50.16,213.155 142.2,213.155 142.2,168.665 178.95,168.665 178.95,283.655 	"/>
	<path style="fill:#F9DD53;" d="M298.94,139.655c9.12,0,16.5,7.39,16.5,16.5c0,9.12-7.38,16.5-16.5,16.5
		c-9.11,0-16.49-7.38-16.49-16.5C282.45,147.045,289.83,139.655,298.94,139.655z"/>
	<polygon style="fill:#DDCA6C;" points="258.58,177.115 298.28,225.095 268.86,260.655 201.95,260.655 201.95,245.555 	"/>
	<rect x="142.2" y="145.665" style="fill:#88C5FC;" width="36.75" height="23"/>
	<rect x="6.46" y="250.315" style="fill:#F9A18A;" width="135.74" height="84.33"/>
	<rect x="6.46" y="24.165" style="fill:#E6E6E6;" width="135.74" height="188.99"/>
	<rect x="27.16" y="213.155" style="fill:#88C5FC;" width="23" height="37.16"/>
	<rect x="37.514" y="66.16" style="fill:#4D4D4D;" width="73.633" height="15"/>
	<rect x="37.514" y="96.16" style="fill:#4D4D4D;" width="73.633" height="15"/>
	<rect x="37.514" y="126.16" style="fill:#4D4D4D;" width="73.633" height="15"/>
	<rect x="37.514" y="156.16" style="fill:#4D4D4D;" width="73.633" height="15"/>
	<polygon style="fill:#DB7D6A;" points="142.2,325.815 142.2,334.645 127.99,334.645 74.33,301.305 60.12,292.485 6.46,259.145 
		6.46,250.315 20.68,250.315 74.33,283.655 88.54,292.485 	"/>
	<polygon style="fill:#DB7D6A;" points="142.2,250.315 142.2,259.145 88.54,292.485 74.33,301.305 20.68,334.645 6.46,334.645 
		6.46,325.815 60.12,292.485 74.33,283.655 127.99,250.315 	"/>
	<g>
		<polygon style="opacity:0.23;fill:#F2F2F2;enable-background:new    ;" points="450.44,94.665 450.44,283.655 322.85,283.655 
			334.81,260.655 409.22,117.665 421.19,94.665 		"/>
		<polygon style="opacity:0.23;fill:#F2F2F2;enable-background:new    ;" points="255.73,94.665 251.81,102.195 243.76,117.665 
			239.98,124.935 214.02,174.815 201.95,198.015 201.63,198.635 178.95,242.215 178.95,94.665 		"/>
	</g>
	<g>
		<polygon style="opacity:0.23;fill:#F2F2F2;enable-background:new    ;" points="99.02,24.165 94.32,33.195 82.49,55.935 
			56.53,105.815 44.14,129.635 20.2,175.635 6.46,202.035 6.46,24.165 		"/>
	</g>
	<g>
		<polygon style="opacity:0.23;fill:#F2F2F2;enable-background:new    ;" points="79.21,250.315 74.99,258.425 49.03,308.305 
			36.64,332.125 35.33,334.645 6.46,334.645 6.46,250.315 		"/>
	</g>
	<g>
		<polygon style="opacity:0.23;fill:#F2F2F2;enable-background:new    ;" points="403.2,303.655 403.2,368.685 184,368.685 
			217.84,303.655 		"/>
		<polygon style="opacity:0.23;fill:#F2F2F2;enable-background:new    ;" points="105.75,224.155 95.52,243.805 92.13,250.315 
			50.16,250.315 50.16,224.155 		"/>
	</g>
	<g>
		<path style="opacity:0.23;fill:#F2F2F2;enable-background:new    ;" d="M453.35,391.685c0,11.27-4.98,21.39-12.85,28.26H318.92
			l14.7-28.26H453.35z"/>
	</g>
</g>
<g>
</g>
<g>
</g>
<g>
</g>
<g>
</g>
<g>
</g>
<g>
</g>
<g>
</g>
<g>
</g>
<g>
</g>
<g>
</g>
<g>
</g>
<g>
</g>
<g>
</g>
<g>
</g>
<g>
</g>
</svg>
